<?xml version="1.0" standalone="no"?>
<!DOCTYPE svg PUBLIC "-//W3C//DTD SVG 20010904//EN"
 "http://www.w3.org/TR/2001/REC-SVG-20010904/DTD/svg10.dtd">
<svg version="1.0" xmlns="http://www.w3.org/2000/svg"
 width="331.000000pt" height="343.000000pt" viewBox="0 0 331.000000 343.000000"
 preserveAspectRatio="xMidYMid meet">

<g transform="translate(0.000000,343.000000) scale(0.100000,-0.100000)"
fill="#000000" stroke="none">
<path d="M1407 3393 c-50 -8 -56 -32 -45 -178 8 -111 13 -133 30 -148 28 -24
48 -6 48 42 0 41 14 61 42 61 21 0 38 35 30 62 -3 11 -14 18 -29 18 -32 0 -63
17 -63 35 0 19 7 22 60 30 70 10 80 14 80 39 0 39 -57 53 -153 39z"/>
<path d="M1640 3372 c-21 -17 -23 -25 -21 -121 2 -143 24 -181 105 -181 87 0
118 47 124 187 4 82 2 94 -13 99 -30 12 -45 -22 -45 -106 0 -82 -16 -120 -50
-120 -27 0 -35 32 -35 139 0 84 -2 95 -21 107 -19 13 -24 12 -44 -4z"/>
<path d="M1154 3368 c-29 -5 -60 -18 -69 -28 -15 -17 -15 -24 6 -117 12 -54
27 -122 33 -150 17 -76 23 -80 103 -58 88 23 123 41 123 63 0 38 -15 45 -77
37 -47 -5 -62 -3 -72 9 -10 12 -9 18 8 35 12 12 30 21 41 21 26 0 36 25 22 55
-10 22 -16 24 -55 19 -28 -4 -47 -2 -51 5 -10 16 12 51 34 51 31 0 50 11 50
31 0 15 -30 42 -42 38 -2 -1 -26 -6 -54 -11z"/>
<path d="M1984 3338 c-145 -97 -124 -299 31 -302 98 -2 155 111 80 160 -44 29
-93 -9 -59 -47 21 -24 11 -49 -20 -49 -29 0 -66 42 -66 75 0 41 42 89 94 106
52 17 68 33 58 58 -15 41 -55 41 -118 -1z"/>
<path d="M2247 3342 c-23 -25 -21 -49 4 -62 31 -17 71 12 67 48 -4 34 -46 42
-71 14z"/>
<path d="M839 3284 c-25 -8 -58 -26 -72 -40 -30 -30 -29 -44 11 -134 13 -30
32 -81 42 -113 20 -65 44 -97 71 -97 28 0 41 35 34 90 -6 43 -4 50 15 60 20
11 27 7 69 -34 52 -51 77 -58 90 -23 11 29 -9 68 -54 103 -34 26 -35 28 -29
79 6 48 4 55 -23 85 -34 38 -81 45 -154 24z m92 -93 l23 -18 -20 -33 c-30 -52
-51 -60 -74 -30 -26 33 -22 71 10 87 32 16 34 16 61 -6z"/>
<path d="M2230 3237 c-19 -15 -65 -109 -80 -165 -14 -55 -6 -84 23 -80 29 4
88 121 95 186 5 54 -11 79 -38 59z"/>
<path d="M2342 3175 c-36 -30 -62 -100 -62 -165 0 -57 29 -89 89 -97 34 -5 47
-1 77 22 41 32 84 114 84 164 0 24 -9 42 -34 67 -29 29 -41 34 -79 34 -34 0
-53 -6 -75 -25z m121 -77 c12 -19 -12 -83 -45 -118 -27 -29 -66 -26 -78 5 -12
32 12 98 44 121 26 18 65 15 79 -8z"/>
<path d="M753 2724 c-39 -20 -85 -70 -135 -150 -32 -51 -112 -153 -188 -244
l-21 -25 6 65 c20 223 18 310 -9 310 -19 0 -54 -70 -71 -143 -14 -60 -14 -74
0 -134 8 -36 25 -82 36 -103 l21 -36 -35 -75 c-46 -98 -87 -199 -87 -215 0 -7
-4 -15 -10 -19 -13 -8 -29 59 -31 140 -2 86 -12 109 -39 95 -19 -10 -50 -94
-50 -135 0 -42 31 -125 63 -167 28 -37 32 -49 29 -88 -6 -66 5 -45 13 25 3 33
21 103 38 155 l32 95 70 18 c73 19 114 45 177 111 37 40 55 72 45 82 -6 6
-147 -64 -192 -95 -16 -12 -33 -21 -37 -21 -21 0 50 121 142 242 55 73 74 91
130 119 36 18 79 43 96 56 33 24 98 135 87 147 -11 11 -47 6 -80 -10z"/>
<path d="M2490 2723 c0 -9 15 -41 33 -71 32 -53 94 -100 172 -131 55 -21 290
-351 251 -351 -3 0 -29 15 -58 34 -60 38 -122 70 -155 80 -44 14 -24 -26 50
-98 73 -72 82 -77 212 -111 13 -3 60 -140 74 -215 6 -30 13 -64 15 -75 2 -11
4 1 5 26 1 29 7 52 17 60 26 21 65 108 71 157 6 55 -9 120 -36 154 -31 37 -43
12 -52 -108 -9 -122 -21 -148 -40 -83 -7 24 -36 95 -66 158 l-53 114 25 51
c37 76 50 154 36 213 -16 66 -60 155 -74 150 -21 -7 -26 -89 -15 -225 5 -73 8
-135 6 -137 -2 -3 -26 26 -53 63 -27 37 -70 92 -96 122 -25 30 -62 80 -82 110
-19 30 -48 67 -63 82 -49 45 -124 64 -124 31z"/>
<path d="M1396 2410 c-27 -5 -56 -16 -65 -24 -14 -15 -14 -18 2 -33 15 -16 38
-18 167 -18 125 0 152 3 166 16 15 16 15 18 -5 38 -13 13 -34 21 -53 21 -18 0
-62 2 -98 4 -36 3 -87 1 -114 -4z m244 -35 c0 -13 -159 -25 -232 -18 -57 6
-75 17 -40 26 33 9 272 2 272 -8z"/>
<path d="M1570 2308 c-19 -4 -70 -6 -112 -3 -61 5 -84 3 -110 -11 -44 -22 -59
-35 -53 -44 3 -5 26 3 51 17 43 24 50 25 96 14 38 -8 65 -8 112 0 56 11 65 10
103 -10 23 -11 47 -21 53 -21 20 0 10 17 -17 30 -71 33 -89 37 -123 28z"/>
<path d="M1392 2212 c-25 -55 -26 -62 -12 -62 11 0 49 75 50 98 0 26 -17 10
-38 -36z"/>
<path d="M1600 2172 c0 -54 4 -72 18 -85 10 -10 23 -17 29 -17 16 0 89 158 78
169 -10 10 -45 -39 -45 -63 0 -11 -10 -37 -21 -56 l-22 -35 -9 25 c-5 14 -8
49 -6 78 4 39 1 52 -9 52 -9 0 -13 -18 -13 -68z"/>
<path d="M1280 2221 c0 -13 56 -71 69 -71 18 0 13 9 -21 46 -32 34 -48 42 -48
25z"/>
<path d="M1363 2094 c4 -20 15 -55 26 -77 20 -40 20 -40 1 -65 -11 -14 -20
-40 -20 -59 0 -19 -7 -48 -16 -64 -8 -17 -18 -53 -21 -82 -4 -28 -12 -58 -20
-65 -7 -7 -13 -27 -13 -44 l0 -30 -44 45 c-61 63 -126 93 -268 123 -228 47
-313 79 -414 156 -29 21 -65 40 -81 41 -26 2 -28 -1 -31 -42 -3 -35 3 -54 26
-91 17 -27 33 -62 37 -79 4 -17 22 -48 41 -68 19 -19 34 -40 34 -45 0 -23 53
-107 89 -143 23 -21 41 -48 41 -60 0 -11 7 -31 16 -44 19 -27 108 -71 144 -71
29 0 58 -16 48 -26 -4 -4 -3 -15 3 -25 12 -24 68 -25 110 -3 24 12 34 13 45 4
33 -28 100 20 169 123 37 54 41 67 25 67 -5 0 -25 -24 -43 -52 -42 -66 -95
-118 -119 -118 -15 0 -17 5 -12 25 8 31 -6 32 -32 4 -25 -28 -67 -49 -99 -49
-29 0 -34 24 -8 39 26 14 13 21 -63 33 -85 13 -142 40 -155 75 -5 14 -8 27 -7
29 2 1 28 -4 58 -12 64 -17 80 -17 80 -4 0 5 -12 12 -27 15 -97 21 -120 31
-164 75 -25 25 -50 60 -56 77 l-11 31 51 -23 c61 -28 145 -50 154 -41 10 10
-1 15 -62 31 -74 20 -145 58 -190 103 -51 51 -46 66 12 41 79 -34 183 -38 183
-8 0 8 -14 9 -41 5 -61 -10 -169 29 -207 74 -27 32 -53 93 -50 117 3 26 4 25
87 -32 111 -76 286 -137 461 -160 61 -8 158 -60 218 -116 47 -45 50 -51 62
-125 15 -97 27 -131 41 -117 6 6 6 19 -1 37 -15 39 -29 183 -21 213 5 19 13
-1 34 -89 31 -130 33 -170 11 -192 -20 -21 -33 -20 -69 4 -38 25 -48 25 -40 1
3 -11 1 -23 -6 -26 -6 -4 -19 -25 -29 -46 -13 -31 -15 -50 -9 -91 14 -86 64
-136 145 -146 l49 -6 -40 -7 c-155 -29 -295 21 -295 105 0 28 7 40 30 57 16
12 27 26 24 31 -9 14 -24 9 -49 -17 -19 -19 -25 -35 -25 -71 0 -39 5 -51 33
-79 18 -18 51 -38 73 -44 43 -11 494 -11 494 0 0 9 -55 19 -104 19 -29 0 -47
6 -59 20 -14 17 -29 20 -95 20 -91 0 -115 12 -143 74 -22 49 -24 97 -5 135 19
36 42 55 51 41 10 -17 70 -12 88 8 25 27 22 111 -8 230 -28 115 -32 196 -10
249 8 19 15 46 15 59 0 36 33 104 50 104 8 0 24 7 34 15 25 19 63 19 100 0 15
-8 32 -13 36 -10 8 5 22 -48 54 -202 35 -169 37 -197 21 -303 -8 -56 -22 -117
-30 -137 -17 -41 -13 -52 12 -32 11 9 14 10 9 2 -4 -7 -4 -18 0 -24 3 -6 14 2
26 21 18 31 20 32 38 15 21 -19 40 -74 40 -115 0 -51 -23 -105 -59 -139 l-36
-34 30 5 c19 4 43 -1 67 -13 38 -19 108 -26 108 -10 0 5 -19 11 -42 15 -24 4
-53 14 -65 22 l-23 14 20 38 c39 73 14 230 -40 247 -28 9 -32 71 -7 122 20 43
20 59 -7 128 -16 43 -21 122 -8 143 7 10 14 8 33 -7 36 -28 106 -30 149 -3 19
12 38 22 41 22 8 0 2 -154 -9 -210 -5 -25 -23 -68 -41 -96 -58 -91 -54 -176
11 -273 41 -62 44 -82 23 -148 -6 -20 -4 -23 19 -23 36 0 99 33 125 66 30 38
44 101 37 163 -8 70 -34 125 -83 181 -67 76 -69 82 -29 141 19 29 36 45 38 37
3 -8 17 1 38 25 74 85 149 120 305 142 161 23 265 63 383 146 40 29 75 49 78
46 9 -9 -23 -83 -56 -132 -39 -56 -102 -87 -169 -84 -60 3 -75 -6 -35 -22 39
-14 99 -4 152 27 68 40 52 4 -25 -55 -48 -36 -163 -91 -192 -91 -25 0 -37 -18
-18 -26 12 -4 96 24 186 63 9 4 3 -14 -14 -46 -33 -59 -90 -102 -162 -121 -76
-19 -77 -20 -67 -30 7 -7 27 -5 60 5 27 8 52 15 57 15 17 0 5 -34 -21 -60 -30
-30 -79 -47 -150 -53 -53 -5 -60 -12 -37 -37 18 -20 17 -20 -14 -20 -35 0 -80
20 -100 44 -20 24 -34 19 -27 -9 5 -20 3 -25 -13 -25 -26 0 -76 50 -124 123
-39 58 -57 76 -57 57 0 -19 68 -118 111 -161 37 -37 45 -41 82 -37 23 2 61 -1
85 -8 52 -16 92 -4 92 26 0 11 6 20 13 20 33 0 119 33 146 56 17 14 36 43 42
64 7 24 26 50 48 68 37 29 81 105 81 137 0 10 18 33 40 52 28 24 41 45 45 71
4 20 20 63 37 95 34 66 35 110 2 115 -12 2 -46 -16 -85 -44 -35 -26 -95 -62
-134 -80 -66 -30 -108 -41 -315 -80 -98 -18 -165 -51 -228 -113 -43 -41 -44
-42 -25 -10 45 73 41 160 -9 209 -21 21 -39 30 -63 30 -34 0 -61 -22 -50 -40
5 -8 -9 -9 -47 -3 -63 9 -103 9 -142 -1 -22 -5 -27 -11 -24 -29 3 -13 -1 -28
-8 -35 -10 -9 -16 4 -29 61 -37 166 -50 217 -57 217 -5 0 -8 -13 -8 -29 0 -29
0 -30 -27 -15 -40 20 -96 18 -126 -7 l-27 -20 -19 43 c-11 24 -22 55 -26 71
-8 42 -29 34 -22 -9z m661 -254 c43 -51 43 -89 4 -172 -20 -40 -45 -84 -57
-98 l-21 -25 9 27 c11 28 14 179 4 203 -3 8 -12 15 -19 15 -11 0 -12 4 -4 19
5 11 10 29 10 40 0 33 43 27 74 -9z m-145 -16 c50 -10 25 -24 -44 -24 -67 0
-95 6 -95 21 0 10 92 12 139 3z m-43 -45 c36 0 70 3 77 6 7 4 -1 -5 -18 -19
-39 -34 -99 -33 -140 1 -27 22 -28 24 -7 18 13 -4 52 -7 88 -6z m142 -340 c58
-65 81 -103 97 -165 26 -102 0 -181 -75 -223 -47 -26 -55 -24 -41 12 12 30 -1
84 -28 118 -48 63 -68 144 -49 200 10 30 49 99 56 99 1 0 19 -19 40 -41z
m-283 -89 c-4 -12 -9 -19 -12 -17 -3 3 -2 15 2 27 4 12 9 19 12 17 3 -3 2 -15
-2 -27z"/>
<path d="M385 1892 c-30 -25 -78 -90 -113 -152 -18 -30 -32 -50 -32 -45 0 6
-4 4 -9 -3 -9 -15 -4 -147 9 -204 4 -20 5 -39 2 -42 -3 -3 -24 20 -47 52 -68
92 -142 151 -158 125 -9 -14 21 -84 58 -138 29 -43 49 -59 105 -86 37 -18 73
-42 80 -53 10 -19 10 -20 5 -1 -15 48 -45 203 -45 231 0 23 7 36 25 48 64 42
153 207 143 265 -3 18 -4 19 -23 3z"/>
<path d="M2914 1868 c10 -66 62 -163 117 -218 37 -37 49 -56 49 -79 0 -35 -24
-154 -39 -194 -6 -15 -6 -27 -2 -27 5 0 11 4 13 8 2 5 33 22 70 39 74 35 125
92 153 172 17 50 14 61 -18 54 -30 -8 -69 -46 -125 -121 -25 -35 -48 -59 -50
-54 -2 6 1 33 6 61 9 51 15 264 6 226 -12 -49 -16 -49 -43 2 -50 90 -114 173
-134 173 -6 0 -7 -18 -3 -42z"/>
<path d="M850 1709 c0 -20 108 -60 187 -69 79 -9 137 -25 161 -43 15 -12 27
-3 17 12 -12 21 -80 42 -165 52 -51 6 -107 20 -139 34 -61 29 -61 29 -61 14z"/>
<path d="M2406 1690 c-21 -10 -73 -21 -115 -25 -83 -8 -171 -36 -193 -62 -15
-19 -9 -18 72 12 25 10 88 23 140 31 92 13 170 38 170 56 0 13 -31 8 -74 -12z"/>
<path d="M377 1509 c-24 -37 -37 -99 -38 -182 -1 -42 -5 -74 -10 -71 -19 11
-7 -26 36 -112 55 -109 56 -123 13 -95 -100 63 -176 90 -185 66 -2 -6 11 -35
29 -65 43 -72 95 -99 191 -100 37 0 67 3 67 6 0 3 -8 18 -19 32 -10 15 -35 60
-56 101 -36 72 -37 75 -21 107 35 74 46 147 36 228 -5 43 -14 84 -19 93 -7 14
-11 13 -24 -8z"/>
<path d="M2915 1512 c-4 -9 -10 -58 -12 -109 -5 -82 -3 -100 22 -171 26 -75
27 -80 11 -110 -9 -18 -12 -32 -7 -32 5 0 25 38 45 84 38 89 41 101 27 92 -4
-3 -11 33 -15 81 -8 113 -51 213 -71 165z"/>
<path d="M3025 1325 c-3 -8 -7 -22 -10 -31 -3 -8 -1 -13 4 -10 5 3 11 17 13
31 6 27 0 34 -7 10z"/>
<path d="M3070 1116 c-19 -8 -62 -30 -95 -50 -56 -34 -82 -34 -55 -1 7 9 8 15
2 15 -5 0 -12 -7 -15 -15 -11 -28 -138 -213 -159 -231 -21 -19 -21 -19 -14 1
9 23 36 160 36 181 0 23 -27 16 -48 -13 -35 -50 -62 -140 -62 -206 0 -61 -1
-64 -42 -103 -24 -22 -58 -52 -75 -66 l-33 -26 75 -7 c41 -4 92 -4 112 0 70
13 163 62 163 87 0 12 -97 9 -170 -6 -36 -8 -66 -13 -68 -11 -2 2 18 27 45 57
26 29 79 92 117 141 l69 87 51 0 c67 0 125 17 154 43 34 31 75 105 68 122 -6
18 -10 18 -56 1z"/>
<path d="M555 993 c4 -21 13 -66 21 -101 17 -78 17 -77 -1 -62 -35 29 -10 -6
61 -86 59 -66 70 -84 52 -79 -91 20 -120 25 -170 25 -64 0 -71 -9 -30 -38 68
-49 173 -72 248 -54 26 6 48 6 58 0 37 -21 25 2 -16 30 -24 17 -59 46 -79 64
-34 32 -36 38 -38 102 -3 106 -52 226 -95 234 -15 3 -16 -2 -11 -35z"/>
<path d="M490 931 c0 -6 4 -13 10 -16 6 -3 7 1 4 9 -7 18 -14 21 -14 7z"/>
<path d="M820 743 c0 -16 11 -51 24 -79 21 -45 29 -53 70 -66 25 -8 46 -13 46
-11 0 26 -111 183 -130 183 -6 0 -10 -12 -10 -27z"/>
<path d="M2432 707 c-37 -47 -79 -127 -68 -127 2 0 25 9 50 19 47 21 67 51 86
129 12 51 -20 41 -68 -21z"/>
<path d="M2413 515 c-32 -32 -35 -40 -30 -77 7 -53 31 -76 90 -87 26 -5 50
-11 53 -14 13 -12 -8 -43 -36 -54 -38 -14 -39 -33 -2 -33 35 0 88 33 97 60 10
33 -13 79 -44 86 -76 17 -91 26 -91 58 0 12 7 32 16 44 16 24 13 52 -7 52 -6
0 -27 -16 -46 -35z"/>
<path d="M818 503 c-34 -40 -99 -165 -96 -186 8 -55 122 -62 186 -10 73 60 77
140 8 182 -49 31 -79 35 -98 14z m66 -79 c23 -23 19 -50 -10 -73 -62 -49 -96
-13 -53 55 23 37 39 42 63 18z"/>
<path d="M981 368 c-55 -124 -65 -157 -52 -172 16 -19 107 -50 126 -42 25 9
16 40 -18 61 -45 29 -42 50 8 50 49 0 59 25 21 51 -41 26 -34 46 16 42 60 -4
64 23 9 51 -66 34 -78 29 -110 -41z"/>
<path d="M2233 415 c-20 -8 -33 -21 -33 -32 0 -10 18 -63 39 -118 44 -114 51
-119 127 -83 39 19 49 28 49 48 0 27 -5 28 -72 14 -29 -5 -33 -4 -33 15 0 13
10 26 25 33 44 20 23 64 -22 47 -50 -19 -59 18 -13 51 17 12 28 26 25 31 -9
13 -55 10 -92 -6z"/>
<path d="M1366 374 c-10 -25 -1 -27 19 -4 15 17 16 20 3 20 -9 0 -19 -7 -22
-16z"/>
<path d="M2057 333 c-11 -11 -8 -65 7 -113 31 -102 50 -119 120 -106 73 14 73
71 0 71 -38 0 -39 2 -52 45 -28 95 -51 127 -75 103z"/>
<path d="M1893 320 c-27 -11 -28 -20 -7 -155 10 -63 21 -106 29 -109 20 -7
126 20 136 35 15 24 4 34 -47 39 -40 4 -49 8 -49 25 0 12 9 21 25 25 16 4 26
14 28 27 3 19 -2 22 -35 25 -51 4 -58 33 -11 46 23 6 33 14 33 28 0 15 -8 19
-40 21 -22 1 -50 -2 -62 -7z"/>
<path d="M1321 307 c-28 -13 -111 -159 -111 -193 0 -12 7 -24 15 -28 14 -5 45
18 45 34 0 15 36 21 62 11 15 -6 30 -23 37 -41 12 -36 37 -36 35 1 -6 135 -27
229 -52 229 -4 0 -18 -6 -31 -13z m15 -124 c-10 -10 -19 5 -10 18 6 11 8 11
12 0 2 -7 1 -15 -2 -18z"/>
<path d="M1718 252 c-43 -47 -53 -86 -38 -141 12 -47 42 -71 86 -71 46 0 63 9
80 42 24 47 4 88 -43 88 -26 0 -30 -19 -11 -50 18 -29 -3 -48 -36 -32 -52 23
-45 102 12 137 36 23 40 58 6 63 -14 2 -33 -10 -56 -36z"/>
<path d="M1479 254 c-10 -13 -28 -120 -29 -176 0 -45 26 -33 40 17 7 25 17 48
21 51 5 3 22 -17 39 -45 17 -27 37 -52 45 -55 24 -9 38 32 43 122 4 77 3 82
-16 82 -22 0 -32 -18 -32 -56 0 -36 -14 -29 -38 20 -23 46 -54 63 -73 40z"/>
</g>
</svg>
